{"title":"Growth 2009 DVDrip English Klam","uid":6644350,"size":1267435699,"categoryP":"video","categoryS":"movies","magnet":"?xt=urn:btih:0e9b98e9ae452795a64918d5562f4fdfd59a08f5&amp;dn=Growth+2009+DVDrip+English+Klam&amp;tr=udp%3A%2F%2Ftracker.openbittorrent.com%3A80&amp;tr=udp%3A%2F%2Fopen.demonii.com%3A1337&amp;tr=udp%3A%2F%2Ftracker.coppersurfer.tk%3A6969&amp;tr=udp%3A%2F%2Fexodus.desync.com%3A6969","seeders":0,"leechers":1,"uploader":"Klambake","files":-1,"time":1314888674,"description":"With: Mircea Monroe, Christopher Shand en Brian Krause\n\nIn 1989 werd er op het 'Cuttyhunk Island' een onderzoek gedaan naar de menselijke evolutie door proeven op parasieten. Alhoewel het onderzoek er in eerste instantie veelbelovend uit zag, ging er toch iets gruwelijk mis. Driekwart van de bevolking op het eiland werd hierdoor uitgeroeid. Jamie Akerman (Mircea Monroe) wist te ontkomen. Nu twintig jaar later gaat ze terug naar het eiland om haar familie-eigendommen te verkopen. Eenmaal op het eiland blijkt dat een nieuwe generatie parasieten het leven op het eiland nog altijd moeilijk maken...\n\nIn 1989, a breakthrough in advanced parasitic research on Cuttyhunk Island, gave scientists a jump in human evolution...\n\n------------------ Dutch Friends ------------------\nYou can find my Friends at: http://www.Film-Test.nl \n------ They got my dutchs subs ---- and more ------\n\nGeneral:\n\nComplete name                    : Growth\\Growth.avi\nFormat                           : AVI\nFormat/Info                      : Audio Video Interleave\nFile size                        : 1.18 GiB\nDuration                         : 1h 26mn\nOverall bit rate                 : 1 953 Kbps\n\nVideo:\n\nFormat                           : MPEG-4 Visual\nFormat profile                   : Simple@L3\nFormat settings, BVOP            : No\nFormat settings, QPel            : No\nFormat settings, GMC             : No warppoints\nFormat settings, Matrix          : Default (H.263)\nCodec ID                         : XVID\nCodec ID/Hint                    : XviD\nDuration                         : 1h 26mn\nBit rate                         : 1 494 Kbps\nWidth                            : 720 pixels\nHeight                           : 304 pixels\nDisplay aspect ratio             : 2.35:1\nFrame rate                       : 25.000 fps\nColor space                      : YUV\nChroma subsampling               : 4:2:0\nBit depth                        : 8 bits\nScan type                        : Progressive\nBits/(Pixel*Frame)               : 0.273\nStream size                      : 925 MiB (77%)\nWriting library                  : XviD 1.1.2 (UTC 2006-11-01)\n\nAudio:\n\nFormat                           : AC-3\nFormat/Info                      : Audio Coding 3\nMode extension                   : CM (complete main)\nCodec ID                         : 2000\nDuration                         : 1h 26mn\nBit rate mode                    : Constant\nBit rate                         : 448 Kbps\nChannel(s)                       : 6 channels\nChannel positions                : Front: L C R, Side: L R, LFE\nSampling rate                    : 48.0 KHz\nBit depth                        : 16 bits\nStream size                      : 277 MiB (23%)\nAlignment                        : Aligned on interleaves\nInterleave, duration             : 32 ms (0.80 video frame)\nInterleave, preload duration     : 256 ms\n\n","torrent":{"xt":"urn:btih:0e9b98e9ae452795a64918d5562f4fdfd59a08f5","amp;dn":"Growth+2009+DVDrip+English+Klam","amp;tr":["udp%3A%2F%2Ftracker.openbittorrent.com%3A80","udp%3A%2F%2Fopen.demonii.com%3A1337","udp%3A%2F%2Ftracker.coppersurfer.tk%3A6969","udp%3A%2F%2Fexodus.desync.com%3A6969"],"infoHash":"0e9b98e9ae452795a64918d5562f4fdfd59a08f5","infoHashBuffer":{"type":"Buffer","data":[14,155,152,233,174,69,39,149,166,73,24,213,86,47,79,223,213,154,8,245]},"announce":[],"urlList":[]}}